<svg width="378" height="310" viewBox="0 0 378 310" fill="none" xmlns="http://www.w3.org/2000/svg">
<path d="M63.392 268.608V275H60.821V260.455H63.3352V265.945H63.4631C63.7188 265.329 64.1141 264.844 64.6491 264.489C65.1889 264.129 65.8755 263.949 66.7088 263.949C67.4664 263.949 68.1269 264.107 68.6903 264.425C69.2538 264.742 69.6894 265.206 69.9972 265.817C70.3097 266.428 70.4659 267.173 70.4659 268.054V275H67.8949V268.452C67.8949 267.718 67.7055 267.147 67.3267 266.74C66.9527 266.328 66.4271 266.122 65.75 266.122C65.2955 266.122 64.8883 266.222 64.5284 266.42C64.1733 266.615 63.8939 266.896 63.6903 267.266C63.4915 267.635 63.392 268.082 63.392 268.608Z" fill="black"/>
<path d="M29.0781 22V6H39.3281V8.42969H31.9766V12.7734H38.625V15.2031H31.9766V22H29.0781ZM42.5469 15.4766C42.5469 13.5234 42.8047 11.7292 43.3203 10.0937C43.8411 8.45312 44.6146 6.9375 45.6406 5.54688H48.3047C47.9089 6.0625 47.5391 6.69531 47.1953 7.44531C46.8516 8.1901 46.5521 9.00781 46.2969 9.89844C46.0469 10.7839 45.849 11.7031 45.7031 12.6562C45.5625 13.6094 45.4922 14.5495 45.4922 15.4766C45.4922 16.7109 45.6146 17.9609 45.8594 19.2266C46.1094 20.4922 46.4453 21.6641 46.8672 22.7422C47.2943 23.8255 47.7734 24.7109 48.3047 25.3984H45.6406C44.6146 24.0078 43.8411 22.4948 43.3203 20.8594C42.8047 19.2187 42.5469 17.4245 42.5469 15.4766ZM52.8145 10L55.2363 14.4297L57.6973 10H60.6895L57.0723 16L60.752 22H57.7754L55.2363 17.6797L52.7207 22H49.7207L53.377 16L49.8145 10H52.8145ZM67.9238 15.4766C67.9238 17.4245 67.6634 19.2187 67.1426 20.8594C66.627 22.4948 65.8561 24.0078 64.8301 25.3984H62.166C62.5671 24.8828 62.9368 24.2526 63.2754 23.5078C63.6191 22.763 63.916 21.9453 64.166 21.0547C64.4212 20.1641 64.6191 19.2422 64.7598 18.2891C64.9056 17.3359 64.9785 16.3984 64.9785 15.4766C64.9785 14.2422 64.8535 12.9922 64.6035 11.7266C64.3587 10.4609 64.0228 9.28646 63.5957 8.20312C63.1738 7.11979 62.6973 6.23438 62.166 5.54688H64.8301C65.8561 6.9375 66.627 8.45312 67.1426 10.0937C67.6634 11.7292 67.9238 13.5234 67.9238 15.4766Z" fill="black"/>
<path d="M292.797 74.1094C292.667 73.6875 292.487 73.3099 292.258 72.9766C292.034 72.638 291.763 72.349 291.445 72.1094C291.133 71.8698 290.773 71.6901 290.367 71.5703C289.961 71.4453 289.518 71.3828 289.039 71.3828C288.18 71.3828 287.414 71.599 286.742 72.0313C286.07 72.4635 285.542 73.099 285.156 73.9375C284.776 74.7708 284.586 75.7865 284.586 76.9844C284.586 78.1927 284.776 79.2161 285.156 80.0547C285.536 80.8932 286.065 81.5312 286.742 81.9687C287.419 82.401 288.206 82.6172 289.102 82.6172C289.914 82.6172 290.617 82.4609 291.211 82.1484C291.81 81.8359 292.271 81.3932 292.594 80.8203C292.917 80.2422 293.078 79.5651 293.078 78.7891L293.734 78.8906H289.391V76.625H295.883V78.5469C295.883 79.9167 295.591 81.1016 295.008 82.1016C294.424 83.1016 293.622 83.8724 292.602 84.4141C291.581 84.9505 290.409 85.2187 289.086 85.2187C287.612 85.2187 286.318 84.888 285.203 84.2266C284.094 83.5599 283.227 82.6146 282.602 81.3906C281.982 80.1615 281.672 78.7031 281.672 77.0156C281.672 75.724 281.854 74.5703 282.219 73.5547C282.589 72.5391 283.104 71.6771 283.766 70.9687C284.427 70.2552 285.203 69.7135 286.094 69.3437C286.984 68.9687 287.953 68.7812 289 68.7812C289.885 68.7812 290.711 68.9115 291.477 69.1719C292.242 69.4271 292.922 69.7917 293.516 70.2656C294.115 70.7396 294.607 71.3021 294.992 71.9531C295.378 72.6042 295.63 73.3229 295.75 74.1094H292.797ZM299.264 78.4766C299.264 76.5234 299.521 74.7292 300.037 73.0937C300.558 71.4531 301.331 69.9375 302.357 68.5469H305.021C304.626 69.0625 304.256 69.6953 303.912 70.4453C303.568 71.1901 303.269 72.0078 303.014 72.8984C302.764 73.7839 302.566 74.7031 302.42 75.6562C302.279 76.6094 302.209 77.5495 302.209 78.4766C302.209 79.7109 302.331 80.9609 302.576 82.2266C302.826 83.4922 303.162 84.6641 303.584 85.7422C304.011 86.8255 304.49 87.7109 305.021 88.3984H302.357C301.331 87.0078 300.558 85.4948 300.037 83.8594C299.521 82.2187 299.264 80.4245 299.264 78.4766ZM309.531 73L311.953 77.4297L314.414 73H317.406L313.789 79L317.469 85H314.492L311.953 80.6797L309.438 85H306.438L310.094 79L306.531 73H309.531ZM324.641 78.4766C324.641 80.4245 324.38 82.2187 323.859 83.8594C323.344 85.4948 322.573 87.0078 321.547 88.3984H318.883C319.284 87.8828 319.654 87.2526 319.992 86.5078C320.336 85.763 320.633 84.9453 320.883 84.0547C321.138 83.1641 321.336 82.2422 321.477 81.2891C321.622 80.3359 321.695 79.3984 321.695 78.4766C321.695 77.2422 321.57 75.9922 321.32 74.7266C321.076 73.4609 320.74 72.2865 320.313 71.2031C319.891 70.1198 319.414 69.2344 318.883 68.5469H321.547C322.573 69.9375 323.344 71.4531 323.859 73.0937C324.38 74.7292 324.641 76.5234 324.641 78.4766Z" fill="black"/>
<path d="M298.078 305V289H304.078C305.307 289 306.339 289.214 307.172 289.641C308.01 290.068 308.643 290.667 309.07 291.437C309.503 292.203 309.719 293.096 309.719 294.117C309.719 295.143 309.5 296.034 309.063 296.789C308.63 297.539 307.992 298.12 307.148 298.531C306.305 298.937 305.268 299.141 304.039 299.141H299.766V296.734H303.648C304.367 296.734 304.956 296.635 305.414 296.437C305.872 296.234 306.211 295.94 306.43 295.555C306.654 295.164 306.766 294.685 306.766 294.117C306.766 293.549 306.654 293.065 306.43 292.664C306.206 292.258 305.865 291.951 305.406 291.742C304.948 291.529 304.357 291.422 303.633 291.422H300.977V305H298.078ZM306.344 297.75L310.305 305H307.07L303.18 297.75H306.344Z" fill="black"/>
<path d="M2 305.5V39.5H214.5V305.5H2Z" stroke="black" stroke-width="3"/>
<path d="M82.5 217.5L65.9856 222.722L78.7655 234.413L82.5 217.5ZM3.10677 306.512L74.4947 228.473L72.2812 226.449L0.893225 304.488L3.10677 306.512Z" fill="black"/>
<path d="M127.5 146C131.141 145.548 132.421 142.805 136 142C143.026 140.42 147.468 149.031 154 146C156.767 144.716 158.085 143.374 160 141C164.617 135.277 165.519 126 163.5 122.5C161.481 119 159 125.5 159 119.5C159 113.5 159 99.5 157 98.4999C155 97.4998 143.144 95.6141 137 100.5C132.216 104.305 132 113.5 130 114.5C128 115.5 119.5 113 115 117.5C110.5 122 108.165 130.595 112 137.5C115.352 143.535 120.649 146.851 127.5 146Z" stroke="black" stroke-width="3"/>
<path d="M136.5 116.5C136.5 116.5 132 112.5 130 114C128 115.5 125.5 125 125.5 125" stroke="black" stroke-width="3"/>
<path d="M134 142C134 142 125.56 135.915 127.5 131.5C129.119 127.815 133.381 125.737 137 127.5C138.866 128.409 139.661 129.602 140.5 131.5C142.204 135.355 138 142 138 142" stroke="black" stroke-width="3"/>
<path d="M159 118.5C159 118.5 156.993 126.181 153 128C149.979 129.376 145.529 131.156 144.5 128C143.514 124.978 147.631 123.869 150.5 122.5C154.729 120.481 162.5 122.5 162.5 122.5" stroke="black" stroke-width="3"/>
<path d="M129 151.5C129.391 164.387 134.5 179.925 130 184.5C125.5 189.075 118 189.5 118 189.5C118 189.5 126.429 189.843 131 187.5C134.449 185.732 137.5 184.5 138.5 181C139.5 177.5 143 189.5 147 189.5C151 189.5 156.5 189 153 187.5C149.5 186 144.387 181.88 141 176.5C135.151 167.21 138.5 148.5 138.5 148.5" stroke="black" stroke-width="3"/>
<path d="M82 218V68.5H187V218H82Z" stroke="black" stroke-width="3"/>
<path d="M120 105C110.5 107.5 108.392 106.196 103.5 111C97.451 116.94 96.4995 118.5 97.9997 132C99.5 145.5 110.5 148 114 156C117.499 164 114 173 114 173C114 173 94 189.5 108 200C121.999 210.5 128.5 191 140 197C151.499 203 174 194.5 163.5 182.5C153 170.5 137.499 157 149.5 154C161.5 151 164.5 154 168.5 145.5C172.5 137 171.5 108 168.5 99C165.5 90 158 82.5 142.5 87.9999C126.999 93.4998 129.499 102.5 120 105Z" stroke="black" stroke-width="3" stroke-dasharray="6 6"/>
<path d="M317 174.5C320.641 174.048 321.921 171.305 325.5 170.5C332.526 168.92 336.968 177.531 343.5 174.5C346.267 173.216 347.585 171.874 349.5 169.5C354.117 163.777 355.019 154.5 353 151C350.981 147.5 348.5 154 348.5 148C348.5 142 348.5 128 346.5 127C344.5 126 332.644 124.114 326.5 129C321.716 132.805 321.5 142 319.5 143C317.5 144 309 141.5 304.5 146C300 150.5 297.665 159.095 301.5 166C304.852 172.035 310.149 175.351 317 174.5Z" stroke="black" stroke-width="3"/>
<path d="M326 145C326 145 321.5 141 319.5 142.5C317.5 144 315 153.5 315 153.5" stroke="black" stroke-width="3"/>
<path d="M323.5 170.5C323.5 170.5 315.06 164.415 317 160C318.619 156.315 322.881 154.237 326.5 156C328.366 156.909 329.161 158.102 330 160C331.704 163.855 327.5 170.5 327.5 170.5" stroke="black" stroke-width="3"/>
<path d="M348.5 147C348.5 147 346.493 154.681 342.5 156.5C339.479 157.876 335.029 159.656 334 156.5C333.014 153.478 337.131 152.369 340 151C344.229 148.981 352 151 352 151" stroke="black" stroke-width="3"/>
<path d="M318.5 180C318.891 192.887 324 208.425 319.5 213C315 217.575 307.5 218 307.5 218C307.5 218 315.929 218.343 320.5 216C323.949 214.232 327 213 328 209.5C329 206 332.5 218 336.5 218C340.5 218 346 217.5 342.5 216C339 214.5 333.887 210.38 330.5 205C324.651 195.71 328 177 328 177" stroke="black" stroke-width="3"/>
<path d="M271.5 246.5V97H376.5V246.5H271.5Z" stroke="black" stroke-width="3"/>
<path d="M309.5 133.5C300 136 297.892 134.696 293 139.5C286.951 145.44 285.999 147 287.5 160.5C289 174 300 176.5 303.5 184.5C306.999 192.5 303.5 201.5 303.5 201.5C303.5 201.5 283.5 218 297.5 228.5C311.499 239 318 219.5 329.5 225.5C340.999 231.5 363.5 223 353 211C342.5 199 326.999 185.5 339 182.5C351 179.5 354 182.5 358 174C362 165.5 361 136.5 358 127.5C355 118.5 347.5 111 332 116.5C316.499 122 318.999 131 309.5 133.5Z" stroke="black" stroke-width="3" stroke-dasharray="6 6"/>
<path d="M312.5 231.5L299.498 242.943L315.909 248.482L312.5 231.5ZM322 265.5L321.122 266.716L322 265.5ZM306.756 243.83C305.212 248.601 303.532 254.036 302.237 258.861C300.961 263.616 300 267.98 300 270.5L303 270.5C303 268.443 303.84 264.463 305.135 259.639C306.411 254.885 308.073 249.504 309.61 244.753L306.756 243.83ZM300 270.5C300 271.598 300.216 272.855 301.217 273.592C302.235 274.341 303.445 274.105 304.241 273.838C305.111 273.545 306.065 273.02 307.009 272.441C307.966 271.854 309.018 271.144 310.075 270.441C312.24 269.001 314.462 267.57 316.52 266.771C318.609 265.96 320.085 265.968 321.122 266.716L322.878 264.284C320.574 262.622 317.816 263.049 315.435 263.974C313.023 264.91 310.538 266.53 308.413 267.943C307.325 268.666 306.337 269.333 305.44 269.884C304.529 270.443 303.816 270.816 303.286 270.994C302.682 271.197 302.761 271.003 302.996 271.176C303.216 271.338 303 271.402 303 270.5L300 270.5ZM321.122 266.716C322.45 267.674 323.219 269.269 323.521 271.395C323.824 273.522 323.628 275.997 323.196 278.414C322.766 280.815 322.119 283.076 321.576 284.742C321.305 285.573 321.062 286.252 320.887 286.719C320.8 286.953 320.73 287.134 320.682 287.255C320.658 287.316 320.64 287.361 320.628 287.391C320.623 287.405 320.618 287.416 320.615 287.423C320.614 287.426 320.613 287.428 320.613 287.43C320.612 287.43 320.612 287.431 320.612 287.431C320.612 287.431 320.612 287.431 320.612 287.431C320.612 287.431 320.612 287.43 322 288C323.388 288.57 323.388 288.569 323.388 288.569C323.388 288.569 323.388 288.568 323.388 288.568C323.389 288.567 323.389 288.565 323.39 288.564C323.391 288.561 323.393 288.557 323.395 288.552C323.399 288.542 323.405 288.528 323.412 288.509C323.427 288.473 323.448 288.42 323.474 288.352C323.528 288.217 323.604 288.02 323.698 287.769C323.885 287.267 324.142 286.549 324.428 285.672C324.998 283.924 325.687 281.523 326.149 278.942C326.608 276.376 326.857 273.547 326.491 270.973C326.126 268.399 325.113 265.896 322.878 264.284L321.122 266.716Z" fill="black"/>
</svg>