<svg width="408" height="296" viewBox="0 0 408 296" fill="none" xmlns="http://www.w3.org/2000/svg">
<path d="M9 5L0.339746 20H17.6603L9 5ZM9 260H7.5V261.5H9V260ZM363.5 260L348.5 251.34V268.66L363.5 260ZM7.5 18.5V260H10.5V18.5H7.5ZM9 261.5H350V258.5H9V261.5Z" fill="black"/>
<path d="M110.96 291.22C110.269 291.22 109.646 291.097 109.092 290.851C108.543 290.6 108.107 290.231 107.786 289.743C107.468 289.255 107.31 288.654 107.31 287.939C107.31 287.323 107.423 286.814 107.651 286.412C107.878 286.009 108.188 285.688 108.581 285.446C108.974 285.205 109.417 285.022 109.909 284.899C110.406 284.771 110.92 284.679 111.45 284.622C112.089 284.556 112.608 284.497 113.006 284.445C113.403 284.388 113.692 284.303 113.872 284.189C114.057 284.071 114.149 283.888 114.149 283.642V283.599C114.149 283.064 113.991 282.65 113.673 282.357C113.356 282.063 112.899 281.916 112.303 281.916C111.673 281.916 111.173 282.054 110.804 282.328C110.439 282.603 110.193 282.927 110.065 283.301L107.665 282.96C107.854 282.297 108.167 281.743 108.602 281.298C109.038 280.848 109.571 280.512 110.2 280.29C110.83 280.062 111.526 279.949 112.288 279.949C112.814 279.949 113.337 280.01 113.858 280.134C114.379 280.257 114.855 280.46 115.286 280.744C115.716 281.024 116.062 281.405 116.322 281.888C116.588 282.371 116.72 282.974 116.72 283.699V291H114.249V289.501H114.163C114.007 289.804 113.787 290.089 113.503 290.354C113.223 290.614 112.871 290.825 112.445 290.986C112.023 291.142 111.528 291.22 110.96 291.22ZM111.628 289.331C112.144 289.331 112.591 289.229 112.97 289.026C113.349 288.817 113.64 288.543 113.844 288.202C114.052 287.861 114.156 287.489 114.156 287.087V285.801C114.076 285.867 113.938 285.929 113.744 285.986C113.555 286.043 113.342 286.092 113.105 286.135C112.868 286.178 112.634 286.215 112.402 286.249C112.17 286.282 111.969 286.31 111.798 286.334C111.415 286.386 111.071 286.471 110.768 286.589C110.465 286.708 110.226 286.874 110.051 287.087C109.876 287.295 109.788 287.565 109.788 287.896C109.788 288.37 109.961 288.727 110.307 288.969C110.652 289.21 111.093 289.331 111.628 289.331Z" fill="black"/>
<path d="M174.392 12.608V19H171.821V4.45455H174.335V9.9446H174.463C174.719 9.32907 175.114 8.84375 175.649 8.48864C176.189 8.12879 176.875 7.94886 177.709 7.94886C178.466 7.94886 179.127 8.10748 179.69 8.42472C180.254 8.74195 180.689 9.20597 180.997 9.81676C181.31 10.4276 181.466 11.1733 181.466 12.054V19H178.895V12.4517C178.895 11.7178 178.705 11.1473 178.327 10.7401C177.953 10.3281 177.427 10.1222 176.75 10.1222C176.295 10.1222 175.888 10.2216 175.528 10.4205C175.173 10.6146 174.894 10.8963 174.69 11.2656C174.491 11.6349 174.392 12.0824 174.392 12.608Z" fill="black"/>
<path d="M380.923 256.091L383.125 260.118L385.362 256.091H388.082L384.794 261.545L388.139 267H385.433L383.125 263.072L380.838 267H378.111L381.435 261.545L378.196 256.091H380.923Z" fill="black"/>
<path d="M48.7969 40.1094C48.6667 39.6875 48.487 39.3099 48.2578 38.9766C48.0339 38.638 47.763 38.349 47.4453 38.1094C47.1328 37.8698 46.7734 37.6901 46.3672 37.5703C45.9609 37.4453 45.5182 37.3828 45.0391 37.3828C44.1797 37.3828 43.4141 37.599 42.7422 38.0313C42.0703 38.4635 41.5417 39.099 41.1563 39.9375C40.776 40.7708 40.5859 41.7865 40.5859 42.9844C40.5859 44.1927 40.776 45.2161 41.1563 46.0547C41.5365 46.8932 42.0651 47.5312 42.7422 47.9687C43.4193 48.401 44.2057 48.6172 45.1016 48.6172C45.9141 48.6172 46.6172 48.4609 47.2109 48.1484C47.8099 47.8359 48.2708 47.3932 48.5938 46.8203C48.9167 46.2422 49.0781 45.5651 49.0781 44.7891L49.7344 44.8906H45.3906V42.625H51.8828V44.5469C51.8828 45.9167 51.5911 47.1016 51.0078 48.1016C50.4245 49.1016 49.6224 49.8724 48.6016 50.4141C47.5807 50.9505 46.4089 51.2187 45.0859 51.2187C43.612 51.2187 42.3177 50.888 41.2031 50.2266C40.0938 49.5599 39.2266 48.6146 38.6016 47.3906C37.9818 46.1615 37.6719 44.7031 37.6719 43.0156C37.6719 41.724 37.8542 40.5703 38.2188 39.5547C38.5885 38.5391 39.1042 37.6771 39.7656 36.9687C40.4271 36.2552 41.2031 35.7135 42.0938 35.3437C42.9844 34.9687 43.9531 34.7812 45 34.7812C45.8854 34.7812 46.7109 34.9115 47.4766 35.1719C48.2422 35.4271 48.9219 35.7917 49.5156 36.2656C50.1146 36.7396 50.6068 37.3021 50.9922 37.9531C51.3776 38.6042 51.6302 39.3229 51.75 40.1094H48.7969ZM55.2637 44.4766C55.2637 42.5234 55.5215 40.7292 56.0371 39.0937C56.5579 37.4531 57.3314 35.9375 58.3574 34.5469H61.0215C60.6257 35.0625 60.2559 35.6953 59.9121 36.4453C59.5684 37.1901 59.2689 38.0078 59.0137 38.8984C58.7637 39.7839 58.5658 40.7031 58.4199 41.6562C58.2793 42.6094 58.209 43.5495 58.209 44.4766C58.209 45.7109 58.3314 46.9609 58.5762 48.2266C58.8262 49.4922 59.1621 50.6641 59.584 51.7422C60.0111 52.8255 60.4902 53.7109 61.0215 54.3984H58.3574C57.3314 53.0078 56.5579 51.4948 56.0371 49.8594C55.5215 48.2187 55.2637 46.4245 55.2637 44.4766ZM65.5313 39L67.9531 43.4297L70.4141 39H73.4062L69.7891 45L73.4688 51H70.4922L67.9531 46.6797L65.4375 51H62.4375L66.0937 45L62.5313 39H65.5313ZM80.6406 44.4766C80.6406 46.4245 80.3802 48.2187 79.8594 49.8594C79.3438 51.4948 78.5729 53.0078 77.5469 54.3984H74.8828C75.2839 53.8828 75.6536 53.2526 75.9922 52.5078C76.3359 51.763 76.6328 50.9453 76.8828 50.0547C77.138 49.1641 77.3359 48.2422 77.4766 47.2891C77.6224 46.3359 77.6953 45.3984 77.6953 44.4766C77.6953 43.2422 77.5703 41.9922 77.3203 40.7266C77.0755 39.4609 76.7396 38.2865 76.3125 37.2031C75.8906 36.1198 75.4141 35.2344 74.8828 34.5469H77.5469C78.5729 35.9375 79.3438 37.4531 79.8594 39.0937C80.3802 40.7292 80.6406 42.5234 80.6406 44.4766ZM96.9824 41.8359V44.1641H89.7793V41.8359H96.9824ZM105.539 51V35H115.789V37.4297H108.438V41.7734H115.086V44.2031H108.438V51H105.539ZM119.008 44.4766C119.008 42.5234 119.266 40.7292 119.781 39.0937C120.302 37.4531 121.076 35.9375 122.102 34.5469H124.766C124.37 35.0625 124 35.6953 123.656 36.4453C123.313 37.1901 123.013 38.0078 122.758 38.8984C122.508 39.7839 122.31 40.7031 122.164 41.6562C122.023 42.6094 121.953 43.5495 121.953 44.4766C121.953 45.7109 122.076 46.9609 122.32 48.2266C122.57 49.4922 122.906 50.6641 123.328 51.7422C123.755 52.8255 124.234 53.7109 124.766 54.3984H122.102C121.076 53.0078 120.302 51.4948 119.781 49.8594C119.266 48.2187 119.008 46.4245 119.008 44.4766ZM129.275 39L131.697 43.4297L134.158 39H137.15L133.533 45L137.213 51H134.236L131.697 46.6797L129.182 51H126.182L129.838 45L126.275 39H129.275ZM144.385 44.4766C144.385 46.4245 144.124 48.2187 143.604 49.8594C143.088 51.4948 142.317 53.0078 141.291 54.3984H138.627C139.028 53.8828 139.398 53.2526 139.736 52.5078C140.08 51.763 140.377 50.9453 140.627 50.0547C140.882 49.1641 141.08 48.2422 141.221 47.2891C141.367 46.3359 141.439 45.3984 141.439 44.4766C141.439 43.2422 141.314 41.9922 141.064 40.7266C140.82 39.4609 140.484 38.2865 140.057 37.2031C139.635 36.1198 139.158 35.2344 138.627 34.5469H141.291C142.317 35.9375 143.088 37.4531 143.604 39.0937C144.124 40.7292 144.385 42.5234 144.385 44.4766Z" fill="black"/>
<path d="M243.797 146.109C243.667 145.687 243.487 145.31 243.258 144.977C243.034 144.638 242.763 144.349 242.445 144.109C242.133 143.87 241.773 143.69 241.367 143.57C240.961 143.445 240.518 143.383 240.039 143.383C239.18 143.383 238.414 143.599 237.742 144.031C237.07 144.464 236.542 145.099 236.156 145.937C235.776 146.771 235.586 147.786 235.586 148.984C235.586 150.193 235.776 151.216 236.156 152.055C236.536 152.893 237.065 153.531 237.742 153.969C238.419 154.401 239.206 154.617 240.102 154.617C240.914 154.617 241.617 154.461 242.211 154.148C242.81 153.836 243.271 153.393 243.594 152.82C243.917 152.242 244.078 151.565 244.078 150.789L244.734 150.891H240.391V148.625H246.883V150.547C246.883 151.917 246.591 153.102 246.008 154.102C245.424 155.102 244.622 155.872 243.602 156.414C242.581 156.951 241.409 157.219 240.086 157.219C238.612 157.219 237.318 156.888 236.203 156.227C235.094 155.56 234.227 154.615 233.602 153.391C232.982 152.161 232.672 150.703 232.672 149.016C232.672 147.724 232.854 146.57 233.219 145.555C233.589 144.539 234.104 143.677 234.766 142.969C235.427 142.255 236.203 141.714 237.094 141.344C237.984 140.969 238.953 140.781 240 140.781C240.885 140.781 241.711 140.911 242.477 141.172C243.242 141.427 243.922 141.792 244.516 142.266C245.115 142.74 245.607 143.302 245.992 143.953C246.378 144.604 246.63 145.323 246.75 146.109H243.797ZM250.264 150.477C250.264 148.523 250.521 146.729 251.037 145.094C251.558 143.453 252.331 141.937 253.357 140.547H256.021C255.626 141.063 255.256 141.695 254.912 142.445C254.568 143.19 254.269 144.008 254.014 144.898C253.764 145.784 253.566 146.703 253.42 147.656C253.279 148.609 253.209 149.549 253.209 150.477C253.209 151.711 253.331 152.961 253.576 154.227C253.826 155.492 254.162 156.664 254.584 157.742C255.011 158.826 255.49 159.711 256.021 160.398H253.357C252.331 159.008 251.558 157.495 251.037 155.859C250.521 154.219 250.264 152.424 250.264 150.477ZM260.531 145L262.953 149.43L265.414 145H268.406L264.789 151L268.469 157H265.492L262.953 152.68L260.438 157H257.438L261.094 151L257.531 145H260.531ZM275.641 150.477C275.641 152.424 275.38 154.219 274.859 155.859C274.344 157.495 273.573 159.008 272.547 160.398H269.883C270.284 159.883 270.654 159.253 270.992 158.508C271.336 157.763 271.633 156.945 271.883 156.055C272.138 155.164 272.336 154.242 272.477 153.289C272.622 152.336 272.695 151.398 272.695 150.477C272.695 149.242 272.57 147.992 272.32 146.727C272.076 145.461 271.74 144.286 271.313 143.203C270.891 142.12 270.414 141.234 269.883 140.547H272.547C273.573 141.937 274.344 143.453 274.859 145.094C275.38 146.729 275.641 148.523 275.641 150.477Z" fill="black"/>
<path d="M349.078 157V141H359.328V143.43H351.977V147.773H358.625V150.203H351.977V157H349.078ZM362.547 150.477C362.547 148.523 362.805 146.729 363.32 145.094C363.841 143.453 364.615 141.937 365.641 140.547H368.305C367.909 141.063 367.539 141.695 367.195 142.445C366.852 143.19 366.552 144.008 366.297 144.898C366.047 145.784 365.849 146.703 365.703 147.656C365.563 148.609 365.492 149.549 365.492 150.477C365.492 151.711 365.615 152.961 365.859 154.227C366.109 155.492 366.445 156.664 366.867 157.742C367.294 158.826 367.773 159.711 368.305 160.398H365.641C364.615 159.008 363.841 157.495 363.32 155.859C362.805 154.219 362.547 152.424 362.547 150.477ZM372.814 145L375.236 149.43L377.697 145H380.689L377.072 151L380.752 157H377.775L375.236 152.68L372.721 157H369.721L373.377 151L369.814 145H372.814ZM387.924 150.477C387.924 152.424 387.663 154.219 387.143 155.859C386.627 157.495 385.856 159.008 384.83 160.398H382.166C382.567 159.883 382.937 159.253 383.275 158.508C383.619 157.763 383.916 156.945 384.166 156.055C384.421 155.164 384.619 154.242 384.76 153.289C384.906 152.336 384.979 151.398 384.979 150.477C384.979 149.242 384.854 147.992 384.604 146.727C384.359 145.461 384.023 144.286 383.596 143.203C383.174 142.12 382.697 141.234 382.166 140.547H384.83C385.856 141.937 386.627 143.453 387.143 145.094C387.663 146.729 387.924 148.523 387.924 150.477Z" fill="black"/>
<path d="M292.935 291V276.455H295.506V281.895H295.612C295.745 281.63 295.932 281.348 296.173 281.05C296.415 280.747 296.741 280.489 297.153 280.276C297.565 280.058 298.091 279.949 298.73 279.949C299.573 279.949 300.333 280.164 301.01 280.595C301.692 281.021 302.232 281.653 302.629 282.491C303.032 283.325 303.233 284.348 303.233 285.56C303.233 286.758 303.036 287.776 302.643 288.614C302.25 289.452 301.715 290.091 301.038 290.531C300.361 290.972 299.594 291.192 298.737 291.192C298.112 291.192 297.594 291.088 297.182 290.879C296.77 290.671 296.438 290.42 296.188 290.126C295.941 289.828 295.75 289.546 295.612 289.281H295.463V291H292.935ZM295.456 285.545C295.456 286.251 295.555 286.869 295.754 287.399C295.958 287.929 296.249 288.344 296.628 288.642C297.011 288.936 297.475 289.082 298.02 289.082C298.588 289.082 299.064 288.931 299.447 288.628C299.831 288.32 300.12 287.901 300.314 287.371C300.513 286.836 300.612 286.227 300.612 285.545C300.612 284.868 300.515 284.267 300.321 283.741C300.127 283.216 299.838 282.804 299.455 282.506C299.071 282.207 298.593 282.058 298.02 282.058C297.471 282.058 297.004 282.203 296.621 282.491C296.237 282.78 295.946 283.185 295.747 283.706C295.553 284.227 295.456 284.84 295.456 285.545Z" fill="black"/>
<path d="M112.5 266V255" stroke="black" stroke-width="3"/>
<path d="M298.5 266V255" stroke="black" stroke-width="3"/>
<path d="M94.5 59.5C94.5 59.5 114.5 119.5 120 114C125.5 108.5 119 91 126 89.5C133 88 152.5 137 152.5 137" stroke="black" stroke-width="3"/>
<path d="M154 201.5V89H201" stroke="black" stroke-width="3"/>
<path d="M177.5 24.5C177.5 24.5 166.5 47 170.5 50.5C174.5 54 179.924 43.1716 187 43C194.076 42.8284 184 89 184 89" stroke="black" stroke-width="3"/>
<path d="M61.5 220.5C61.5 220.5 83 225.5 101.5 209C120 192.5 119 78 196 70.5001C273 63.0001 296.5 165 296.5 165" stroke="black" stroke-width="3"/>
<path d="M109.5 220.394C109.5 220.394 131 225.394 149.5 208.894C168 192.394 167 77.8942 244 70.3942C321 62.8943 344.5 164.894 344.5 164.894" stroke="black" stroke-width="3"/>
</svg>