<svg width="347" height="308" viewBox="0 0 347 308" fill="none" xmlns="http://www.w3.org/2000/svg">
<path d="M106.687 114.998L172.313 1.35763" stroke="black" stroke-width="3"/>
<path d="M26.0611 53.2675C25.9545 52.9223 25.8075 52.6133 25.62 52.3406C25.4368 52.0636 25.2152 51.8271 24.9553 51.6311C24.6996 51.4351 24.4055 51.2881 24.0732 51.1901C23.7408 51.0878 23.3786 51.0366 22.9865 51.0366C22.2834 51.0366 21.657 51.2135 21.1072 51.5672C20.5575 51.9209 20.125 52.4408 19.8097 53.1268C19.4986 53.8087 19.343 54.6396 19.343 55.6197C19.343 56.6084 19.4986 57.4457 19.8097 58.1318C20.1207 58.8179 20.5533 59.3399 21.1072 59.6979C21.6612 60.0516 22.3047 60.2284 23.0376 60.2284C23.7024 60.2284 24.2777 60.1006 24.7635 59.8449C25.2536 59.5892 25.6307 59.227 25.8949 58.7582C26.1591 58.2852 26.2912 57.7312 26.2912 57.0963L26.8281 57.1794H23.2741V55.3257H28.5859V56.8981C28.5859 58.0189 28.3473 58.9883 27.87 59.8065C27.3928 60.6247 26.7365 61.2554 25.9013 61.6986C25.0661 62.1375 24.1072 62.357 23.0249 62.357C21.8189 62.357 20.7599 62.0864 19.848 61.5452C18.9403 60.9997 18.2308 60.2263 17.7195 59.2249C17.2124 58.2192 16.9588 57.026 16.9588 55.6453C16.9588 54.5885 17.108 53.6446 17.4062 52.8136C17.7088 51.9827 18.1307 51.2774 18.6719 50.6979C19.2131 50.1141 19.848 49.6709 20.5767 49.3683C21.3054 49.0615 22.098 48.9081 22.9545 48.9081C23.679 48.9081 24.3544 49.0146 24.9808 49.2277C25.6072 49.4365 26.1634 49.7348 26.6491 50.1226C27.1392 50.5104 27.5419 50.9706 27.8572 51.5033C28.1726 52.0359 28.3793 52.624 28.4773 53.2675H26.0611ZM31.3521 56.8406C31.3521 55.2426 31.563 53.7746 31.9849 52.4365C32.411 51.0942 33.0439 49.8541 33.8833 48.7163H36.063C35.7392 49.1382 35.4366 49.656 35.1554 50.2696C34.8741 50.879 34.6291 51.548 34.4203 52.2767C34.2157 53.0011 34.0538 53.7533 33.9345 54.5331C33.8194 55.3129 33.7619 56.0821 33.7619 56.8406C33.7619 57.8506 33.862 58.8733 34.0623 59.9088C34.2669 60.9443 34.5417 61.9031 34.8869 62.7852C35.2363 63.6716 35.6284 64.396 36.063 64.9585H33.8833C33.0439 63.8207 32.411 62.5828 31.9849 61.2447C31.563 59.9024 31.3521 58.4344 31.3521 56.8406ZM39.7528 52.3598L41.7344 55.9841L43.7479 52.3598H46.196L43.2365 57.2689L46.2472 62.178H43.8118L41.7344 58.6432L39.6761 62.178H37.2216L40.2131 57.2689L37.2983 52.3598H39.7528ZM52.1151 56.8406C52.1151 58.4344 51.902 59.9024 51.4759 61.2447C51.054 62.5828 50.4233 63.8207 49.5838 64.9585H47.4041C47.7322 64.5366 48.0348 64.021 48.3118 63.4116C48.593 62.8023 48.8359 62.1332 49.0405 61.4045C49.2493 60.6758 49.4112 59.9216 49.5263 59.1418C49.6456 58.3619 49.7053 57.5949 49.7053 56.8406C49.7053 55.8307 49.603 54.8079 49.3984 53.7724C49.1982 52.7369 48.9233 51.776 48.5739 50.8896C48.2287 50.0033 47.8388 49.2788 47.4041 48.7163H49.5838C50.4233 49.8541 51.054 51.0942 51.4759 52.4365C51.902 53.7746 52.1151 55.2426 52.1151 56.8406Z" fill="black"/>
<path d="M159.189 65.8598V52.3598H161.464V53.9834H161.599C161.718 53.7447 161.886 53.4912 162.104 53.2227C162.321 52.95 162.615 52.7178 162.986 52.526C163.357 52.33 163.83 52.232 164.405 52.232C165.163 52.232 165.847 52.4258 166.457 52.8136C167.07 53.1972 167.556 53.766 167.914 54.5203C168.276 55.2703 168.457 56.1908 168.457 57.2817C168.457 58.3598 168.281 59.276 167.927 60.0303C167.573 60.7845 167.092 61.3598 166.482 61.7561C165.873 62.1524 165.183 62.3506 164.411 62.3506C163.849 62.3506 163.382 62.2568 163.011 62.0693C162.641 61.8818 162.342 61.656 162.116 61.3918C161.895 61.1233 161.722 60.8697 161.599 60.6311H161.503V65.8598H159.189ZM161.458 57.2689C161.458 57.9038 161.548 58.4599 161.727 58.9372C161.91 59.4145 162.172 59.7874 162.513 60.0558C162.858 60.32 163.276 60.4521 163.766 60.4521C164.277 60.4521 164.705 60.3158 165.05 60.043C165.396 59.766 165.656 59.3889 165.83 58.9116C166.009 58.4301 166.099 57.8825 166.099 57.2689C166.099 56.6595 166.011 56.1183 165.837 55.6453C165.662 55.1723 165.402 54.8016 165.057 54.5331C164.712 54.2646 164.281 54.1304 163.766 54.1304C163.271 54.1304 162.852 54.2604 162.506 54.5203C162.161 54.7803 161.899 55.1446 161.72 55.6133C161.545 56.0821 161.458 56.6339 161.458 57.2689ZM171.014 56.8406C171.014 55.2426 171.225 53.7746 171.647 52.4365C172.073 51.0942 172.706 49.8541 173.545 48.7163H175.725C175.401 49.1382 175.099 49.656 174.817 50.2696C174.536 50.879 174.291 51.548 174.082 52.2767C173.878 53.0011 173.716 53.7533 173.597 54.5331C173.482 55.3129 173.424 56.0821 173.424 56.8406C173.424 57.8506 173.524 58.8733 173.724 59.9088C173.929 60.9443 174.204 61.9031 174.549 62.7852C174.898 63.6716 175.29 64.396 175.725 64.9585H173.545C172.706 63.8207 172.073 62.5828 171.647 61.2447C171.225 59.9024 171.014 58.4344 171.014 56.8406ZM179.415 52.3598L181.396 55.9841L183.41 52.3598H185.858L182.899 57.2689L185.909 62.178H183.474L181.396 58.6432L179.338 62.178H176.884L179.875 57.2689L176.96 52.3598H179.415ZM190.365 60.3882L190.281 61.0913C190.222 61.6283 190.115 62.1737 189.962 62.7277C189.813 63.2859 189.655 63.7994 189.489 64.2682C189.323 64.7369 189.188 65.1055 189.086 65.374H187.526C187.586 65.1141 187.667 64.7604 187.769 64.3129C187.876 63.8655 187.978 63.3626 188.076 62.8044C188.174 62.2462 188.24 61.6794 188.274 61.1041L188.319 60.3882H190.365ZM192.829 62.178V60.7078L197.891 54.3605V54.2774H192.995V52.3598H200.723V53.9386L195.903 60.1773V60.2604H200.889V62.178H192.829ZM207.193 56.8406C207.193 58.4344 206.98 59.9024 206.554 61.2447C206.132 62.5828 205.501 63.8207 204.662 64.9585H202.482C202.81 64.5366 203.113 64.021 203.39 63.4116C203.671 62.8023 203.914 62.1332 204.119 61.4045C204.327 60.6758 204.489 59.9216 204.604 59.1418C204.724 58.3619 204.783 57.5949 204.783 56.8406C204.783 55.8307 204.681 54.8079 204.477 53.7724C204.276 52.7369 204.001 51.776 203.652 50.8896C203.307 50.0033 202.917 49.2788 202.482 48.7163H204.662C205.501 49.8541 206.132 51.0942 206.554 52.4365C206.98 53.7746 207.193 55.2426 207.193 56.8406Z" fill="black"/>
<path d="M258.741 170.86V165.631H258.645C258.526 165.87 258.353 166.123 258.127 166.392C257.901 166.656 257.603 166.882 257.232 167.069C256.862 167.257 256.395 167.351 255.832 167.351C255.061 167.351 254.371 167.152 253.761 166.756C253.152 166.36 252.67 165.785 252.317 165.03C251.963 164.276 251.786 163.36 251.786 162.282C251.786 161.191 251.965 160.27 252.323 159.52C252.685 158.766 253.173 158.197 253.787 157.814C254.401 157.426 255.085 157.232 255.839 157.232C256.414 157.232 256.887 157.33 257.258 157.526C257.629 157.718 257.923 157.95 258.14 158.223C258.357 158.491 258.526 158.745 258.645 158.983H258.786V157.36H261.061V170.86H258.741ZM256.478 165.452C256.968 165.452 257.386 165.32 257.731 165.056C258.076 164.787 258.338 164.414 258.517 163.937C258.696 163.46 258.786 162.904 258.786 162.269C258.786 161.634 258.696 161.082 258.517 160.613C258.342 160.145 258.082 159.78 257.737 159.52C257.396 159.26 256.977 159.13 256.478 159.13C255.962 159.13 255.532 159.265 255.187 159.533C254.842 159.802 254.582 160.172 254.407 160.645C254.232 161.118 254.145 161.66 254.145 162.269C254.145 162.883 254.232 163.43 254.407 163.912C254.586 164.389 254.848 164.766 255.193 165.043C255.543 165.316 255.971 165.452 256.478 165.452ZM264.014 161.841C264.014 160.243 264.225 158.775 264.647 157.437C265.073 156.094 265.706 154.854 266.545 153.716H268.725C268.401 154.138 268.099 154.656 267.817 155.27C267.536 155.879 267.291 156.548 267.082 157.277C266.878 158.001 266.716 158.753 266.597 159.533C266.482 160.313 266.424 161.082 266.424 161.841C266.424 162.851 266.524 163.873 266.724 164.909C266.929 165.944 267.204 166.903 267.549 167.785C267.898 168.672 268.29 169.396 268.725 169.959H266.545C265.706 168.821 265.073 167.583 264.647 166.245C264.225 164.902 264.014 163.434 264.014 161.841ZM270.523 170.86V157.36H272.798V158.983H272.933C273.052 158.745 273.22 158.491 273.438 158.223C273.655 157.95 273.949 157.718 274.32 157.526C274.691 157.33 275.164 157.232 275.739 157.232C276.497 157.232 277.181 157.426 277.791 157.814C278.404 158.197 278.89 158.766 279.248 159.52C279.61 160.27 279.791 161.191 279.791 162.282C279.791 163.36 279.615 164.276 279.261 165.03C278.907 165.785 278.426 166.36 277.816 166.756C277.207 167.152 276.517 167.351 275.745 167.351C275.183 167.351 274.716 167.257 274.345 167.069C273.975 166.882 273.676 166.656 273.45 166.392C273.229 166.123 273.056 165.87 272.933 165.631H272.837V170.86H270.523ZM272.792 162.269C272.792 162.904 272.882 163.46 273.061 163.937C273.244 164.414 273.506 164.787 273.847 165.056C274.192 165.32 274.61 165.452 275.1 165.452C275.611 165.452 276.039 165.316 276.384 165.043C276.73 164.766 276.99 164.389 277.164 163.912C277.343 163.43 277.433 162.883 277.433 162.269C277.433 161.66 277.345 161.118 277.171 160.645C276.996 160.172 276.736 159.802 276.391 159.533C276.046 159.265 275.615 159.13 275.1 159.13C274.605 159.13 274.186 159.26 273.84 159.52C273.495 159.78 273.233 160.145 273.054 160.613C272.879 161.082 272.792 161.634 272.792 162.269ZM284.49 165.388L284.406 166.091C284.347 166.628 284.24 167.174 284.087 167.728C283.938 168.286 283.78 168.799 283.614 169.268C283.448 169.737 283.313 170.106 283.211 170.374H281.651C281.711 170.114 281.792 169.76 281.894 169.313C282.001 168.865 282.103 168.363 282.201 167.804C282.299 167.246 282.365 166.679 282.399 166.104L282.444 165.388H284.49ZM291.364 167.37C290.384 167.37 289.542 167.155 288.839 166.724C288.14 166.294 287.601 165.699 287.222 164.941C286.847 164.178 286.66 163.3 286.66 162.307C286.66 161.31 286.851 160.43 287.235 159.667C287.618 158.9 288.16 158.304 288.858 157.878C289.562 157.447 290.393 157.232 291.351 157.232C292.148 157.232 292.854 157.379 293.467 157.673C294.085 157.963 294.577 158.374 294.944 158.907C295.31 159.435 295.519 160.053 295.57 160.76H293.358C293.269 160.287 293.056 159.893 292.719 159.578C292.387 159.258 291.942 159.098 291.383 159.098C290.91 159.098 290.495 159.226 290.137 159.482C289.779 159.733 289.5 160.096 289.3 160.569C289.104 161.042 289.006 161.608 289.006 162.269C289.006 162.938 289.104 163.513 289.3 163.995C289.496 164.472 289.77 164.841 290.124 165.101C290.482 165.356 290.902 165.484 291.383 165.484C291.724 165.484 292.029 165.42 292.297 165.292C292.57 165.16 292.798 164.971 292.981 164.723C293.165 164.476 293.29 164.176 293.358 163.822H295.57C295.515 164.517 295.31 165.133 294.956 165.669C294.603 166.202 294.121 166.62 293.512 166.922C292.903 167.221 292.187 167.37 291.364 167.37ZM301.599 161.841C301.599 163.434 301.386 164.902 300.96 166.245C300.538 167.583 299.908 168.821 299.068 169.959H296.888C297.217 169.537 297.519 169.021 297.796 168.412C298.077 167.802 298.32 167.133 298.525 166.405C298.734 165.676 298.896 164.922 299.011 164.142C299.13 163.362 299.19 162.595 299.19 161.841C299.19 160.831 299.087 159.808 298.883 158.772C298.683 157.737 298.408 156.776 298.058 155.89C297.713 155.003 297.323 154.279 296.888 153.716H299.068C299.908 154.854 300.538 156.094 300.96 157.437C301.386 158.775 301.599 160.243 301.599 161.841Z" fill="black"/>
<path d="M40.2912 303.178V290.087H45.2003C46.206 290.087 47.0497 290.275 47.7315 290.65C48.4176 291.025 48.9354 291.54 49.2848 292.196C49.6385 292.848 49.8153 293.59 49.8153 294.421C49.8153 295.26 49.6385 296.006 49.2848 296.658C48.9311 297.31 48.4091 297.824 47.7188 298.199C47.0284 298.569 46.1783 298.755 45.1683 298.755H41.9148V296.805H44.8487C45.4368 296.805 45.9183 296.703 46.2933 296.498C46.6683 296.294 46.9453 296.012 47.1243 295.655C47.3075 295.297 47.3991 294.885 47.3991 294.421C47.3991 293.956 47.3075 293.547 47.1243 293.194C46.9453 292.84 46.6662 292.565 46.2869 292.369C45.9119 292.169 45.4283 292.069 44.8359 292.069H42.6626V303.178H40.2912ZM51.7729 303.178V293.36H54.0868V303.178H51.7729ZM52.9363 291.966C52.5698 291.966 52.2544 291.845 51.9902 291.602C51.726 291.355 51.5939 291.059 51.5939 290.713C51.5939 290.364 51.726 290.068 51.9902 289.825C52.2544 289.578 52.5698 289.454 52.9363 289.454C53.307 289.454 53.6223 289.578 53.8823 289.825C54.1465 290.068 54.2786 290.364 54.2786 290.713C54.2786 291.059 54.1465 291.355 53.8823 291.602C53.6223 291.845 53.307 291.966 52.9363 291.966ZM60.7489 303.37C59.7688 303.37 58.9272 303.155 58.2241 302.724C57.5252 302.294 56.9862 301.699 56.6069 300.941C56.2319 300.178 56.0444 299.3 56.0444 298.307C56.0444 297.31 56.2362 296.43 56.6197 295.667C57.0032 294.9 57.5444 294.304 58.2433 293.878C58.9464 293.447 59.7773 293.232 60.7362 293.232C61.533 293.232 62.2383 293.379 62.8519 293.673C63.4698 293.963 63.962 294.374 64.3285 294.907C64.695 295.435 64.9038 296.053 64.9549 296.76H62.7433C62.6538 296.287 62.4407 295.893 62.104 295.578C61.7717 295.258 61.3263 295.098 60.7681 295.098C60.2951 295.098 59.8796 295.226 59.5217 295.482C59.1637 295.733 58.8846 296.096 58.6843 296.569C58.4883 297.042 58.3903 297.608 58.3903 298.269C58.3903 298.938 58.4883 299.513 58.6843 299.995C58.8803 300.472 59.1552 300.841 59.5089 301.101C59.8668 301.356 60.2866 301.484 60.7681 301.484C61.109 301.484 61.4137 301.42 61.6822 301.292C61.9549 301.16 62.1829 300.971 62.3661 300.723C62.5494 300.476 62.6751 300.176 62.7433 299.822H64.9549C64.8995 300.517 64.695 301.132 64.3413 301.669C63.9876 302.202 63.506 302.62 62.8967 302.922C62.2873 303.221 61.5714 303.37 60.7489 303.37ZM71.7576 293.36V295.15H66.1135V293.36H71.7576ZM67.5069 291.007H69.8208V300.225C69.8208 300.536 69.8677 300.775 69.9615 300.941C70.0595 301.103 70.1873 301.213 70.345 301.273C70.5027 301.333 70.6774 301.363 70.8691 301.363C71.014 301.363 71.1461 301.352 71.2654 301.331C71.389 301.309 71.4828 301.29 71.5467 301.273L71.9366 303.082C71.813 303.125 71.6362 303.172 71.4061 303.223C71.1802 303.274 70.9032 303.304 70.5751 303.312C69.9956 303.329 69.4735 303.242 69.0091 303.05C68.5446 302.854 68.176 302.552 67.9032 302.142C67.6348 301.733 67.5027 301.222 67.5069 300.608V291.007ZM79.9506 299.049V293.36H82.2646V303.178H80.021V301.433H79.9187C79.6971 301.983 79.3327 302.432 78.8256 302.782C78.3228 303.131 77.7028 303.306 76.9656 303.306C76.3221 303.306 75.7532 303.163 75.2589 302.878C74.7688 302.588 74.3853 302.168 74.1083 301.618C73.8313 301.064 73.6928 300.395 73.6928 299.611V293.36H76.0067V299.253C76.0067 299.875 76.1772 300.37 76.5181 300.736C76.859 301.103 77.3065 301.286 77.8604 301.286C78.2013 301.286 78.5316 301.203 78.8512 301.037C79.1708 300.87 79.4329 300.623 79.6374 300.295C79.8462 299.963 79.9506 299.547 79.9506 299.049ZM84.644 303.178V293.36H86.8876V294.996H86.9899C87.1689 294.429 87.4757 293.993 87.9103 293.686C88.3493 293.375 88.85 293.219 89.4125 293.219C89.5403 293.219 89.6831 293.226 89.8407 293.238C90.0027 293.247 90.1369 293.262 90.2434 293.283V295.412C90.1454 295.378 89.9899 295.348 89.7768 295.322C89.568 295.292 89.3656 295.277 89.1696 295.277C88.7477 295.277 88.3684 295.369 88.0318 295.552C87.6994 295.731 87.4373 295.981 87.2456 296.3C87.0538 296.62 86.9579 296.988 86.9579 297.406V303.178H84.644ZM95.723 303.37C94.7386 303.37 93.8885 303.165 93.1726 302.756C92.4609 302.343 91.9134 301.759 91.5298 301.005C91.1463 300.246 90.9545 299.353 90.9545 298.326C90.9545 297.316 91.1463 296.43 91.5298 295.667C91.9176 294.9 92.4588 294.304 93.1534 293.878C93.848 293.447 94.6641 293.232 95.6016 293.232C96.2067 293.232 96.7777 293.33 97.3146 293.526C97.8558 293.718 98.3331 294.016 98.7464 294.421C99.1641 294.826 99.4922 295.341 99.7308 295.968C99.9695 296.59 100.089 297.331 100.089 298.192V298.902H92.0412V297.342H97.8707C97.8665 296.899 97.7706 296.505 97.5831 296.159C97.3956 295.81 97.1335 295.535 96.7969 295.335C96.4645 295.135 96.0767 295.034 95.6335 295.034C95.1605 295.034 94.745 295.15 94.3871 295.38C94.0291 295.606 93.75 295.904 93.5497 296.275C93.3537 296.641 93.2536 297.044 93.2493 297.483V298.844C93.2493 299.415 93.3537 299.905 93.5625 300.314C93.7713 300.719 94.0632 301.03 94.4382 301.248C94.8132 301.461 95.2521 301.567 95.755 301.567C96.0916 301.567 96.3963 301.52 96.669 301.427C96.9418 301.329 97.1783 301.186 97.3786 300.998C97.5788 300.811 97.7301 300.579 97.8324 300.302L99.9929 300.544C99.8565 301.115 99.5966 301.614 99.2131 302.04C98.8338 302.462 98.348 302.79 97.7557 303.025C97.1634 303.255 96.4858 303.37 95.723 303.37ZM111.81 290.087V303.178H109.439V292.395H109.362L106.3 294.351V292.177L109.554 290.087H111.81Z" fill="black"/>
<path d="M12.9886 249.632C12.9886 251.043 12.7244 252.251 12.196 253.257C11.6719 254.258 10.956 255.025 10.0483 255.558C9.14489 256.091 8.12003 256.357 6.97372 256.357C5.82741 256.357 4.80043 256.091 3.89276 255.558C2.98935 255.021 2.27344 254.252 1.74503 253.25C1.22088 252.245 0.958807 251.039 0.958807 249.632C0.958807 248.222 1.22088 247.016 1.74503 246.015C2.27344 245.009 2.98935 244.24 3.89276 243.707C4.80043 243.174 5.82741 242.908 6.97372 242.908C8.12003 242.908 9.14489 243.174 10.0483 243.707C10.956 244.24 11.6719 245.009 12.196 246.015C12.7244 247.016 12.9886 248.222 12.9886 249.632ZM10.6044 249.632C10.6044 248.64 10.4489 247.802 10.1378 247.12C9.83097 246.434 9.40483 245.917 8.85938 245.567C8.31392 245.213 7.68537 245.037 6.97372 245.037C6.26207 245.037 5.63352 245.213 5.08807 245.567C4.54261 245.917 4.11435 246.434 3.80327 247.12C3.49645 247.802 3.34304 248.64 3.34304 249.632C3.34304 250.625 3.49645 251.465 3.80327 252.151C4.11435 252.833 4.54261 253.351 5.08807 253.704C5.63352 254.054 6.26207 254.228 6.97372 254.228C7.68537 254.228 8.31392 254.054 8.85938 253.704C9.40483 253.351 9.83097 252.833 10.1378 252.151C10.4489 251.465 10.6044 250.625 10.6044 249.632Z" fill="black"/>
<path d="M52.081 157.36L54.0625 160.984L56.076 157.36H58.5241L55.5646 162.269L58.5753 167.178H56.1399L54.0625 163.643L52.0043 167.178H49.5497L52.5412 162.269L49.6264 157.36H52.081Z" fill="black"/>
<path d="M222.291 303.178V290.087H227.2C228.206 290.087 229.05 290.275 229.732 290.65C230.418 291.025 230.935 291.54 231.285 292.196C231.638 292.848 231.815 293.59 231.815 294.421C231.815 295.26 231.638 296.006 231.285 296.658C230.931 297.31 230.409 297.824 229.719 298.199C229.028 298.569 228.178 298.755 227.168 298.755H223.915V296.805H226.849C227.437 296.805 227.918 296.703 228.293 296.498C228.668 296.294 228.945 296.012 229.124 295.655C229.308 295.297 229.399 294.885 229.399 294.421C229.399 293.956 229.308 293.547 229.124 293.194C228.945 292.84 228.666 292.565 228.287 292.369C227.912 292.169 227.428 292.069 226.836 292.069H224.663V303.178H222.291ZM233.773 303.178V293.36H236.087V303.178H233.773ZM234.936 291.966C234.57 291.966 234.254 291.845 233.99 291.602C233.726 291.355 233.594 291.059 233.594 290.713C233.594 290.364 233.726 290.068 233.99 289.825C234.254 289.578 234.57 289.454 234.936 289.454C235.307 289.454 235.622 289.578 235.882 289.825C236.146 290.068 236.279 290.364 236.279 290.713C236.279 291.059 236.146 291.355 235.882 291.602C235.622 291.845 235.307 291.966 234.936 291.966ZM242.749 303.37C241.769 303.37 240.927 303.155 240.224 302.724C239.525 302.294 238.986 301.699 238.607 300.941C238.232 300.178 238.044 299.3 238.044 298.307C238.044 297.31 238.236 296.43 238.62 295.667C239.003 294.9 239.544 294.304 240.243 293.878C240.946 293.447 241.777 293.232 242.736 293.232C243.533 293.232 244.238 293.379 244.852 293.673C245.47 293.963 245.962 294.374 246.328 294.907C246.695 295.435 246.904 296.053 246.955 296.76H244.743C244.654 296.287 244.441 295.893 244.104 295.578C243.772 295.258 243.326 295.098 242.768 295.098C242.295 295.098 241.88 295.226 241.522 295.482C241.164 295.733 240.885 296.096 240.684 296.569C240.488 297.042 240.39 297.608 240.39 298.269C240.39 298.938 240.488 299.513 240.684 299.995C240.88 300.472 241.155 300.841 241.509 301.101C241.867 301.356 242.287 301.484 242.768 301.484C243.109 301.484 243.414 301.42 243.682 301.292C243.955 301.16 244.183 300.971 244.366 300.723C244.549 300.476 244.675 300.176 244.743 299.822H246.955C246.9 300.517 246.695 301.132 246.341 301.669C245.988 302.202 245.506 302.62 244.897 302.922C244.287 303.221 243.571 303.37 242.749 303.37ZM253.758 293.36V295.15H248.113V293.36H253.758ZM249.507 291.007H251.821V300.225C251.821 300.536 251.868 300.775 251.961 300.941C252.059 301.103 252.187 301.213 252.345 301.273C252.503 301.333 252.677 301.363 252.869 301.363C253.014 301.363 253.146 301.352 253.265 301.331C253.389 301.309 253.483 301.29 253.547 301.273L253.937 303.082C253.813 303.125 253.636 303.172 253.406 303.223C253.18 303.274 252.903 303.304 252.575 303.312C251.996 303.329 251.474 303.242 251.009 303.05C250.545 302.854 250.176 302.552 249.903 302.142C249.635 301.733 249.503 301.222 249.507 300.608V291.007ZM261.951 299.049V293.36H264.265V303.178H262.021V301.433H261.919C261.697 301.983 261.333 302.432 260.826 302.782C260.323 303.131 259.703 303.306 258.966 303.306C258.322 303.306 257.753 303.163 257.259 302.878C256.769 302.588 256.385 302.168 256.108 301.618C255.831 301.064 255.693 300.395 255.693 299.611V293.36H258.007V299.253C258.007 299.875 258.177 300.37 258.518 300.736C258.859 301.103 259.306 301.286 259.86 301.286C260.201 301.286 260.532 301.203 260.851 301.037C261.171 300.87 261.433 300.623 261.637 300.295C261.846 299.963 261.951 299.547 261.951 299.049ZM266.644 303.178V293.36H268.888V294.996H268.99C269.169 294.429 269.476 293.993 269.91 293.686C270.349 293.375 270.85 293.219 271.412 293.219C271.54 293.219 271.683 293.226 271.841 293.238C272.003 293.247 272.137 293.262 272.243 293.283V295.412C272.145 295.378 271.99 295.348 271.777 295.322C271.568 295.292 271.366 295.277 271.17 295.277C270.748 295.277 270.368 295.369 270.032 295.552C269.699 295.731 269.437 295.981 269.246 296.3C269.054 296.62 268.958 296.988 268.958 297.406V303.178H266.644ZM277.723 303.37C276.739 303.37 275.888 303.165 275.173 302.756C274.461 302.343 273.913 301.759 273.53 301.005C273.146 300.246 272.955 299.353 272.955 298.326C272.955 297.316 273.146 296.43 273.53 295.667C273.918 294.9 274.459 294.304 275.153 293.878C275.848 293.447 276.664 293.232 277.602 293.232C278.207 293.232 278.778 293.33 279.315 293.526C279.856 293.718 280.333 294.016 280.746 294.421C281.164 294.826 281.492 295.341 281.731 295.968C281.969 296.59 282.089 297.331 282.089 298.192V298.902H274.041V297.342H279.871C279.866 296.899 279.771 296.505 279.583 296.159C279.396 295.81 279.134 295.535 278.797 295.335C278.464 295.135 278.077 295.034 277.634 295.034C277.161 295.034 276.745 295.15 276.387 295.38C276.029 295.606 275.75 295.904 275.55 296.275C275.354 296.641 275.254 297.044 275.249 297.483V298.844C275.249 299.415 275.354 299.905 275.562 300.314C275.771 300.719 276.063 301.03 276.438 301.248C276.813 301.461 277.252 301.567 277.755 301.567C278.092 301.567 278.396 301.52 278.669 301.427C278.942 301.329 279.178 301.186 279.379 300.998C279.579 300.811 279.73 300.579 279.832 300.302L281.993 300.544C281.857 301.115 281.597 301.614 281.213 302.04C280.834 302.462 280.348 302.79 279.756 303.025C279.163 303.255 278.486 303.37 277.723 303.37ZM288.486 303.178V301.465L293.03 297.01C293.465 296.571 293.827 296.181 294.117 295.84C294.407 295.499 294.624 295.169 294.769 294.849C294.914 294.53 294.986 294.189 294.986 293.826C294.986 293.413 294.893 293.059 294.705 292.765C294.518 292.467 294.26 292.237 293.932 292.075C293.604 291.913 293.231 291.832 292.813 291.832C292.383 291.832 292.006 291.922 291.682 292.101C291.358 292.275 291.106 292.525 290.927 292.848C290.753 293.172 290.665 293.558 290.665 294.005H288.409C288.409 293.174 288.599 292.452 288.978 291.838C289.357 291.225 289.879 290.75 290.544 290.413C291.213 290.076 291.98 289.908 292.845 289.908C293.723 289.908 294.494 290.072 295.159 290.4C295.824 290.728 296.339 291.178 296.706 291.749C297.077 292.32 297.262 292.972 297.262 293.705C297.262 294.195 297.168 294.677 296.981 295.15C296.793 295.623 296.463 296.147 295.99 296.722C295.521 297.297 294.863 297.994 294.015 298.812L291.758 301.107V301.196H297.46V303.178H288.486Z" fill="black"/>
<path d="M288.291 62.178V49.0871H296.678V51.075H290.663V54.629H296.102V56.6169H290.663V62.178H288.291ZM299.311 56.8406C299.311 55.2426 299.522 53.7746 299.944 52.4365C300.37 51.0942 301.003 49.8541 301.842 48.7163H304.022C303.698 49.1382 303.396 49.656 303.114 50.2696C302.833 50.879 302.588 51.548 302.379 52.2767C302.175 53.0011 302.013 53.7533 301.893 54.5331C301.778 55.3129 301.721 56.0821 301.721 56.8406C301.721 57.8506 301.821 58.8733 302.021 59.9088C302.226 60.9443 302.501 61.9031 302.846 62.7852C303.195 63.6716 303.587 64.396 304.022 64.9585H301.842C301.003 63.8207 300.37 62.5828 299.944 61.2447C299.522 59.9024 299.311 58.4344 299.311 56.8406ZM312.249 65.8598V60.6311H312.153C312.033 60.8697 311.861 61.1233 311.635 61.3918C311.409 61.656 311.111 61.8818 310.74 62.0693C310.369 62.2568 309.903 62.3506 309.34 62.3506C308.569 62.3506 307.879 62.1524 307.269 61.7561C306.66 61.3598 306.178 60.7845 305.825 60.0303C305.471 59.276 305.294 58.3598 305.294 57.2817C305.294 56.1908 305.473 55.2703 305.831 54.5203C306.193 53.766 306.681 53.1972 307.295 52.8136C307.908 52.4258 308.592 52.232 309.347 52.232C309.922 52.232 310.395 52.33 310.766 52.526C311.136 52.7178 311.43 52.95 311.648 53.2227C311.865 53.4912 312.033 53.7447 312.153 53.9834H312.293V52.3598H314.569V65.8598H312.249ZM309.986 60.4521C310.476 60.4521 310.893 60.32 311.239 60.0558C311.584 59.7874 311.846 59.4145 312.025 58.9372C312.204 58.4599 312.293 57.9038 312.293 57.2689C312.293 56.6339 312.204 56.0821 312.025 55.6133C311.85 55.1446 311.59 54.7803 311.245 54.5203C310.904 54.2604 310.484 54.1304 309.986 54.1304C309.47 54.1304 309.04 54.2646 308.695 54.5331C308.349 54.8016 308.089 55.1723 307.915 55.6453C307.74 56.1183 307.653 56.6595 307.653 57.2689C307.653 57.8825 307.74 58.4301 307.915 58.9116C308.094 59.3889 308.356 59.766 308.701 60.043C309.05 60.3158 309.479 60.4521 309.986 60.4521ZM321.076 56.8406C321.076 58.4344 320.863 59.9024 320.437 61.2447C320.015 62.5828 319.384 63.8207 318.545 64.9585H316.365C316.693 64.5366 316.996 64.021 317.273 63.4116C317.554 62.8023 317.797 62.1332 318.001 61.4045C318.21 60.6758 318.372 59.9216 318.487 59.1418C318.607 58.3619 318.666 57.5949 318.666 56.8406C318.666 55.8307 318.564 54.8079 318.359 53.7724C318.159 52.7369 317.884 51.776 317.535 50.8896C317.19 50.0033 316.8 49.2788 316.365 48.7163H318.545C319.384 49.8541 320.015 51.0942 320.437 52.4365C320.863 53.7746 321.076 55.2426 321.076 56.8406Z" fill="black"/>
<path d="M3 263.178H37" stroke="black" stroke-width="3"/>
<path d="M21 281.178V245.678" stroke="black" stroke-width="3"/>
<path d="M6 272.678L35 256.178" stroke="black" stroke-width="3"/>
<path d="M303.5 261.678H337.5" stroke="black" stroke-width="3"/>
<path d="M321 279.678V244.178" stroke="black" stroke-width="3"/>
<path d="M335.5 271.178L306.5 255.178" stroke="black" stroke-width="3"/>
<circle cx="73" cy="173.178" r="3" fill="black"/>
<circle cx="241" cy="179.178" r="3" fill="black"/>
<circle cx="136" cy="65.178" r="3" fill="black"/>
<path d="M199.5 134.678L137 65.678" stroke="black" stroke-width="3"/>
<path d="M241.5 180.178L200.5 135.678" stroke="black" stroke-width="3" stroke-dasharray="6 6"/>
<path d="M320.5 263.178L242 180.178" stroke="black" stroke-width="3"/>
<path d="M20.5 263.178L73 173.178" stroke="black" stroke-width="3"/>
<path d="M73 172.678L106.5 114.178" stroke="black" stroke-width="3" stroke-dasharray="6 6"/>
<path d="M3 208.678V63.178L144.5 136.178V281.678L3 208.678Z" stroke="black" stroke-width="3"/>
<path d="M339.5 207.678V62.178L198 135.178V280.678L339.5 207.678Z" stroke="black" stroke-width="3"/>
</svg>